<?xml version="1.0" encoding="UTF-8" standalone="no"?>
<svg
   xmlns:dc="http://purl.org/dc/elements/1.1/"
   xmlns:cc="http://creativecommons.org/ns#"
   xmlns:rdf="http://www.w3.org/1999/02/22-rdf-syntax-ns#"
   xmlns:svg="http://www.w3.org/2000/svg"
   xmlns="http://www.w3.org/2000/svg"
   xmlns:sodipodi="http://sodipodi.sourceforge.net/DTD/sodipodi-0.dtd"
   xmlns:inkscape="http://www.inkscape.org/namespaces/inkscape"
   width="474.659"
   height="75.979"
   viewBox="0 0 474.659 75.979"
   version="1.1"
   id="svg934"
   sodipodi:docname="nombre2.svg"
   inkscape:version="1.0.2 (e86c870879, 2021-01-15, custom)">
  <metadata
     id="metadata940">
    <rdf:RDF>
      <cc:Work
         rdf:about="">
        <dc:format>image/svg+xml</dc:format>
        <dc:type
           rdf:resource="http://purl.org/dc/dcmitype/StillImage" />
        <dc:title></dc:title>
      </cc:Work>
    </rdf:RDF>
  </metadata>
  <defs
     id="defs938" />
  <sodipodi:namedview
     pagecolor="#ffffff"
     bordercolor="#666666"
     borderopacity="1"
     objecttolerance="10"
     gridtolerance="10"
     guidetolerance="10"
     inkscape:pageopacity="0"
     inkscape:pageshadow="2"
     inkscape:window-width="1920"
     inkscape:window-height="1001"
     id="namedview936"
     showgrid="false"
     inkscape:zoom="2.8146522"
     inkscape:cx="237.3295"
     inkscape:cy="37.989498"
     inkscape:window-x="-9"
     inkscape:window-y="-9"
     inkscape:window-maximized="1"
     inkscape:current-layer="svg934" />
  <g
     id="svgGroup"
     stroke-linecap="round"
     fill-rule="evenodd"
     font-size="9pt"
     stroke="#000"
     stroke-width="0.25mm"
     fill="none"
     style="stroke:#000;stroke-width:0.25mm;fill:none">
    <path
       d="M 58.985 37.354 L 58.985 41.309 A 51.23 51.23 0 0 1 58.191 50.541 A 38.341 38.341 0 0 1 55.372 59.644 A 29.364 29.364 0 0 1 50.347 67.334 A 25.823 25.823 0 0 1 45.045 71.753 Q 38.331 75.977 29.59 75.977 A 30.184 30.184 0 0 1 19.99 74.488 A 27.085 27.085 0 0 1 14.185 71.753 Q 7.422 67.529 3.736 59.717 A 38.454 38.454 0 0 1 0.549 49.017 A 50.344 50.344 0 0 1 0.001 41.699 L 0.001 37.695 A 49.927 49.927 0 0 1 0.866 28.193 A 38.331 38.331 0 0 1 3.687 19.336 A 30.163 30.163 0 0 1 8.541 11.841 A 25.942 25.942 0 0 1 14.088 7.153 A 27.608 27.608 0 0 1 26.825 3.033 A 33.983 33.983 0 0 1 29.493 2.93 A 30.767 30.767 0 0 1 38.645 4.251 A 26.83 26.83 0 0 1 44.898 7.104 A 26.734 26.734 0 0 1 54.184 16.984 A 33.068 33.068 0 0 1 55.274 19.116 A 38.568 38.568 0 0 1 58.349 29.326 A 51.685 51.685 0 0 1 58.985 37.354 Z M 46.631 41.309 L 46.631 37.598 A 50.16 50.16 0 0 0 46.201 30.791 Q 45.244 23.825 42.164 19.482 A 14.266 14.266 0 0 0 31.786 13.315 A 19.434 19.434 0 0 0 29.493 13.184 A 16.315 16.315 0 0 0 23.566 14.218 Q 19.712 15.707 17.053 19.342 A 18.284 18.284 0 0 0 16.968 19.458 A 21.618 21.618 0 0 0 13.944 25.678 Q 12.411 30.573 12.354 37.207 L 12.354 41.309 A 48.549 48.549 0 0 0 12.8 48.113 Q 13.781 55.026 16.92 59.424 Q 21.485 65.82 29.59 65.82 A 17.12 17.12 0 0 0 35.211 64.941 A 14.076 14.076 0 0 0 42.213 59.57 A 20.775 20.775 0 0 0 44.991 53.808 Q 45.862 51.056 46.271 47.701 A 53.014 53.014 0 0 0 46.631 41.309 Z"
       id="0"
       vector-effect="non-scaling-stroke" />
    <path
       d="M 82.764 0 L 82.764 75 L 70.899 75 L 70.899 0 L 82.764 0 Z"
       id="1"
       vector-effect="non-scaling-stroke" />
    <path
       d="M 108.301 22.168 L 108.301 75 L 96.436 75 L 96.436 22.168 L 108.301 22.168 Z M 96.057 6.169 A 7.081 7.081 0 0 0 95.704 8.447 A 8.007 8.007 0 0 0 95.714 8.861 A 6.063 6.063 0 0 0 97.437 12.915 A 5.28 5.28 0 0 0 98.274 13.614 Q 99.204 14.241 100.439 14.505 A 9.347 9.347 0 0 0 102.393 14.697 A 11.243 11.243 0 0 0 102.73 14.692 Q 105.709 14.603 107.374 12.915 A 5.917 5.917 0 0 0 108.752 10.749 A 6.738 6.738 0 0 0 109.131 8.447 A 8.12 8.12 0 0 0 109.116 7.943 A 6.141 6.141 0 0 0 107.374 3.906 A 5.408 5.408 0 0 0 106.708 3.325 Q 105.725 2.599 104.393 2.303 A 9.217 9.217 0 0 0 102.393 2.1 A 11.115 11.115 0 0 0 102.081 2.104 Q 101.002 2.134 100.098 2.377 A 5.614 5.614 0 0 0 97.437 3.906 A 6.014 6.014 0 0 0 96.057 6.169 Z"
       id="2"
       vector-effect="non-scaling-stroke" />
    <path
       d="M 121.046 22.168 L 132.227 22.168 L 132.569 28.271 A 18.764 18.764 0 0 1 146.197 21.254 A 24.301 24.301 0 0 1 147.95 21.191 A 20.551 20.551 0 0 1 154.993 22.3 Q 164.525 25.768 164.747 40.088 L 164.747 75 L 152.881 75 L 152.881 40.771 A 18.489 18.489 0 0 0 152.695 38.049 Q 152.245 35.034 150.709 33.325 A 6.501 6.501 0 0 0 148.119 31.611 Q 146.263 30.908 143.604 30.908 A 12.422 12.422 0 0 0 138.645 31.86 Q 135.75 33.106 133.775 35.985 A 15.784 15.784 0 0 0 132.911 37.402 L 132.911 75 L 121.046 75 L 121.046 22.168 Z"
       id="3"
       vector-effect="non-scaling-stroke" />
    <path
       d="M 179.835 9.326 L 191.7 9.326 L 191.7 22.168 L 201.026 22.168 L 201.026 30.957 L 191.7 30.957 L 191.7 60.449 Q 191.7 63.477 192.896 64.819 A 3.36 3.36 0 0 0 194.118 65.663 Q 195.294 66.162 197.169 66.162 A 18.278 18.278 0 0 0 201.319 65.674 L 201.319 74.854 A 31.041 31.041 0 0 1 196.186 75.838 A 26.344 26.344 0 0 1 193.506 75.977 Q 179.835 75.977 179.835 60.889 L 179.835 30.957 L 171.143 30.957 L 171.143 22.168 L 179.835 22.168 L 179.835 9.326 Z"
       id="4"
       vector-effect="non-scaling-stroke" />
    <path
       d="M 207.862 48.682 L 207.862 48.096 A 33.799 33.799 0 0 1 208.835 39.848 A 28.661 28.661 0 0 1 210.938 34.106 A 23.459 23.459 0 0 1 215.829 27.381 A 21.699 21.699 0 0 1 219.581 24.536 A 23.484 23.484 0 0 1 229.506 21.329 A 29.207 29.207 0 0 1 232.374 21.191 A 27.079 27.079 0 0 1 240.397 22.328 A 21.726 21.726 0 0 1 249.732 28.076 A 24.918 24.918 0 0 1 256.075 39.979 A 35.053 35.053 0 0 1 256.934 46.338 L 256.983 49.121 A 34.842 34.842 0 0 1 256.136 56.953 A 28.508 28.508 0 0 1 253.98 63.086 Q 250.977 69.238 245.386 72.607 A 23.518 23.518 0 0 1 235.647 75.81 A 29.532 29.532 0 0 1 232.471 75.977 A 27.135 27.135 0 0 1 224.27 74.794 A 21.601 21.601 0 0 1 214.576 68.53 A 25.308 25.308 0 0 1 208.731 56.966 A 37.314 37.314 0 0 1 207.862 48.682 Z M 219.727 49.121 A 31.886 31.886 0 0 0 220.09 54.091 Q 220.506 56.725 221.4 58.856 A 14.884 14.884 0 0 0 223.096 61.89 A 10.725 10.725 0 0 0 230.834 66.413 A 14.306 14.306 0 0 0 232.471 66.504 A 12.307 12.307 0 0 0 236.757 65.789 Q 239.784 64.673 241.822 61.816 A 15.512 15.512 0 0 0 243.925 57.491 Q 244.584 55.424 244.894 52.902 A 39.589 39.589 0 0 0 245.167 48.096 A 30.182 30.182 0 0 0 244.764 43.01 Q 244.293 40.253 243.267 38.03 A 15.16 15.16 0 0 0 241.724 35.4 A 11.396 11.396 0 0 0 237.847 31.978 Q 235.631 30.812 232.849 30.721 A 14.525 14.525 0 0 0 232.374 30.713 Q 226.563 30.713 223.145 35.327 A 14.897 14.897 0 0 0 221.013 39.579 Q 219.727 43.491 219.727 49.121 Z"
       id="5"
       vector-effect="non-scaling-stroke" />
    <path
       d="M 276.475 62.712 A 9.4 9.4 0 0 0 274.415 62.5 A 11.216 11.216 0 0 0 274.268 62.501 Q 271.103 62.542 269.337 64.38 A 6.262 6.262 0 0 0 267.901 66.721 A 7.303 7.303 0 0 0 267.53 69.092 A 8.16 8.16 0 0 0 267.552 69.699 A 6.058 6.058 0 0 0 269.385 73.73 A 6.155 6.155 0 0 0 272.304 75.304 A 9.02 9.02 0 0 0 274.415 75.537 Q 277.735 75.537 279.542 73.706 A 6.064 6.064 0 0 0 280.977 71.419 A 7.034 7.034 0 0 0 281.348 69.092 A 8.479 8.479 0 0 0 281.332 68.569 A 6.416 6.416 0 0 0 279.542 64.38 A 5.571 5.571 0 0 0 278.895 63.803 Q 277.871 63.026 276.475 62.712 Z"
       id="6"
       vector-effect="non-scaling-stroke" />
    <path
       d="M 316.553 75 L 296.094 75 L 296.094 3.906 L 317.09 3.906 A 36.122 36.122 0 0 1 326.504 5.091 A 30.453 30.453 0 0 1 333.814 8.105 A 28.632 28.632 0 0 1 345.118 20.02 A 35.521 35.521 0 0 1 348.769 31.979 A 45.041 45.041 0 0 1 349.122 37.695 L 349.122 41.26 A 42.994 42.994 0 0 1 348.146 50.618 A 33.779 33.779 0 0 1 345.093 59.033 A 28.288 28.288 0 0 1 333.619 70.85 Q 326.172 75 316.553 75 Z M 317.09 13.867 L 308.448 13.867 L 308.448 65.137 L 316.505 65.137 A 24.789 24.789 0 0 0 322.619 64.427 A 16.673 16.673 0 0 0 331.422 59.058 Q 335.65 54.114 336.505 45.666 A 44.193 44.193 0 0 0 336.719 41.602 L 336.719 37.646 A 42.657 42.657 0 0 0 336.228 30.948 Q 335.148 24.167 331.69 19.971 A 16.261 16.261 0 0 0 322.115 14.35 A 24.776 24.776 0 0 0 317.09 13.867 Z"
       id="7"
       vector-effect="non-scaling-stroke" />
    <path
       d="M 402.979 33.496 L 402.979 43.262 L 373.78 43.262 L 373.78 65.137 L 407.911 65.137 L 407.911 75 L 361.426 75 L 361.426 3.906 L 407.569 3.906 L 407.569 13.867 L 373.78 13.867 L 373.78 33.496 L 402.979 33.496 Z"
       id="8"
       vector-effect="non-scaling-stroke" />
    <path
       d="M 425.147 3.906 L 443.018 59.521 L 461.085 3.906 L 474.659 3.906 L 449.073 75 L 437.11 75 L 411.622 3.906 L 425.147 3.906 Z"
       id="9"
       vector-effect="non-scaling-stroke" />
  </g>
  <path
     style="fill:#000080;fill-opacity:0;stroke-width:0.355284"
     d="M 24.287262,75.149535 C 20.990153,74.519308 19.510311,74.02621 16.698162,72.620761 8.8501257,68.698493 3.713187,61.599015 1.329156,51.380112 0.27018699,46.84095 0.18067241,33.051376 1.1800703,28.413684 3.5300102,17.50882 8.7551602,10.113155 16.875975,6.1977394 c 4.509687,-2.1743265 7.262124,-2.7855138 12.61257,-2.8006619 3.518726,-0.00996 5.06525,0.1543101 7.446636,0.7909839 11.578859,3.0956574 19.143172,12.4124216 21.13448,26.0307926 0.643678,4.40205 0.720824,12.95063 0.158293,17.540945 -1.418317,11.573697 -7.227209,20.748297 -15.75584,24.884876 -1.767298,0.857179 -4.252472,1.809385 -5.522611,2.11602 -3.268324,0.789024 -9.558113,0.982178 -12.662241,0.38884 z m 10.595683,-9.794279 c 6.563195,-2.027167 10.45316,-7.869299 11.66843,-17.524197 0.66929,-5.317293 0.284713,-17.03013 -0.678926,-20.677713 C 43.667192,18.805997 39.129587,14.13582 32.17374,13.054418 c -9.206061,-1.431234 -16.466042,4.03975 -19.067389,14.368824 -0.957536,3.802051 -1.343409,15.374467 -0.67622,20.279939 1.315228,9.670144 5.76539,16.075098 12.414625,17.867924 2.589779,0.698281 7.414467,0.594535 10.038189,-0.215849 z"
     id="path942" />
  <path
     style="fill:#000080;fill-opacity:0;stroke-width:0.355284"
     d="M 24.287262,75.149535 C 20.990153,74.519308 19.510311,74.02621 16.698162,72.620761 8.8501257,68.698493 3.713187,61.599015 1.329156,51.380112 0.27018699,46.84095 0.18067241,33.051376 1.1800703,28.413684 3.5300102,17.50882 8.7551602,10.113155 16.875975,6.1977394 c 4.509687,-2.1743265 7.262124,-2.7855138 12.61257,-2.8006619 3.518726,-0.00996 5.06525,0.1543101 7.446636,0.7909839 11.578859,3.0956574 19.143172,12.4124216 21.13448,26.0307926 0.643678,4.40205 0.720824,12.95063 0.158293,17.540945 -1.418317,11.573697 -7.227209,20.748297 -15.75584,24.884876 -1.767298,0.857179 -4.252472,1.809385 -5.522611,2.11602 -3.268324,0.789024 -9.558113,0.982178 -12.662241,0.38884 z m 10.595683,-9.794279 c 6.563195,-2.027167 10.45316,-7.869299 11.66843,-17.524197 0.66929,-5.317293 0.284713,-17.03013 -0.678926,-20.677713 C 43.667192,18.805997 39.129587,14.13582 32.17374,13.054418 c -9.206061,-1.431234 -16.466042,4.03975 -19.067389,14.368824 -0.957536,3.802051 -1.343409,15.374467 -0.67622,20.279939 1.315228,9.670144 5.76539,16.075098 12.414625,17.867924 2.589779,0.698281 7.414467,0.594535 10.038189,-0.215849 z"
     id="path944" />
  <path
     style="fill:#000080;fill-opacity:0;stroke-width:0.355284"
     d="M 24.287262,75.149535 C 20.990153,74.519308 19.510311,74.02621 16.698162,72.620761 8.8501257,68.698493 3.713187,61.599015 1.329156,51.380112 0.27018699,46.84095 0.18067241,33.051376 1.1800703,28.413684 3.5300102,17.50882 8.7551602,10.113155 16.875975,6.1977394 c 4.509687,-2.1743265 7.262124,-2.7855138 12.61257,-2.8006619 3.518726,-0.00996 5.06525,0.1543101 7.446636,0.7909839 11.578859,3.0956574 19.143172,12.4124216 21.13448,26.0307926 0.643678,4.40205 0.720824,12.95063 0.158293,17.540945 -1.418317,11.573697 -7.227209,20.748297 -15.75584,24.884876 -1.767298,0.857179 -4.252472,1.809385 -5.522611,2.11602 -3.268324,0.789024 -9.558113,0.982178 -12.662241,0.38884 z m 10.595683,-9.794279 c 6.563195,-2.027167 10.45316,-7.869299 11.66843,-17.524197 0.66929,-5.317293 0.284713,-17.03013 -0.678926,-20.677713 C 43.667192,18.805997 39.129587,14.13582 32.17374,13.054418 c -9.206061,-1.431234 -16.466042,4.03975 -19.067389,14.368824 -0.957536,3.802051 -1.343409,15.374467 -0.67622,20.279939 1.315228,9.670144 5.76539,16.075098 12.414625,17.867924 2.589779,0.698281 7.414467,0.594535 10.038189,-0.215849 z"
     id="path946" />
  <path
     style="fill:#000080;fill-opacity:0;stroke-width:0.355284"
     d="M 24.287262,75.149535 C 20.990153,74.519308 19.510311,74.02621 16.698162,72.620761 8.8501257,68.698493 3.713187,61.599015 1.329156,51.380112 0.27018699,46.84095 0.18067241,33.051376 1.1800703,28.413684 3.5300102,17.50882 8.7551602,10.113155 16.875975,6.1977394 c 4.509687,-2.1743265 7.262124,-2.7855138 12.61257,-2.8006619 3.518726,-0.00996 5.06525,0.1543101 7.446636,0.7909839 11.578859,3.0956574 19.143172,12.4124216 21.13448,26.0307926 0.643678,4.40205 0.720824,12.95063 0.158293,17.540945 -1.418317,11.573697 -7.227209,20.748297 -15.75584,24.884876 -1.767298,0.857179 -4.252472,1.809385 -5.522611,2.11602 -3.268324,0.789024 -9.558113,0.982178 -12.662241,0.38884 z m 10.595683,-9.794279 c 6.563195,-2.027167 10.45316,-7.869299 11.66843,-17.524197 0.66929,-5.317293 0.284713,-17.03013 -0.678926,-20.677713 C 43.667192,18.805997 39.129587,14.13582 32.17374,13.054418 c -9.206061,-1.431234 -16.466042,4.03975 -19.067389,14.368824 -0.957536,3.802051 -1.343409,15.374467 -0.67622,20.279939 1.315228,9.670144 5.76539,16.075098 12.414625,17.867924 2.589779,0.698281 7.414467,0.594535 10.038189,-0.215849 z"
     id="path948" />
  <path
     style="fill:#000080;fill-opacity:0;stroke-width:0.355284"
     d="M 24.287262,75.149535 C 20.990153,74.519308 19.510311,74.02621 16.698162,72.620761 8.8501257,68.698493 3.713187,61.599015 1.329156,51.380112 0.27018699,46.84095 0.18067241,33.051376 1.1800703,28.413684 3.5300102,17.50882 8.7551602,10.113155 16.875975,6.1977394 c 4.509687,-2.1743265 7.262124,-2.7855138 12.61257,-2.8006619 3.518726,-0.00996 5.06525,0.1543101 7.446636,0.7909839 11.578859,3.0956574 19.143172,12.4124216 21.13448,26.0307926 0.643678,4.40205 0.720824,12.95063 0.158293,17.540945 -1.418317,11.573697 -7.227209,20.748297 -15.75584,24.884876 -1.767298,0.857179 -4.252472,1.809385 -5.522611,2.11602 -3.268324,0.789024 -9.558113,0.982178 -12.662241,0.38884 z m 10.595683,-9.794279 c 6.563195,-2.027167 10.45316,-7.869299 11.66843,-17.524197 0.66929,-5.317293 0.284713,-17.03013 -0.678926,-20.677713 C 43.667192,18.805997 39.129587,14.13582 32.17374,13.054418 22.983503,11.625644 15.703227,17.111922 13.106351,27.423242 c -0.957536,3.802051 -1.343409,15.374467 -0.67622,20.279939 1.315228,9.670144 5.76539,16.075098 12.414625,17.867924 2.589779,0.698281 7.414467,0.594535 10.038189,-0.215849 z M 25.047499,64.870009 C 19.416143,62.997881 15.808176,58.655991 13.781772,51.312636 13.066587,48.720927 12.998049,47.67171 13.004293,39.410633 c 0.0062,-8.178807 0.08146,-9.329053 0.77423,-11.829496 1.581117,-5.70683 4.369816,-9.896221 7.947709,-11.93964 0.946858,-0.540773 1.641831,-1.062954 1.544384,-1.160401 -0.09745,-0.09745 0.02267,-0.181862 0.266928,-0.187588 0.244257,-0.0057 1.674541,-0.22198 3.178408,-0.480562 8.928192,-1.535158 15.714107,3.433924 18.470032,13.524943 0.757987,2.775423 0.822887,3.713395 0.823064,11.895102 1.57e-4,7.394907 -0.110216,9.357991 -0.659193,11.724361 -1.472196,6.345925 -4.594198,10.858244 -9.020209,13.03716 -2.055778,1.012058 -2.658156,1.134655 -6.071606,1.235737 -2.488143,0.07368 -4.277416,-0.05003 -5.210541,-0.36024 z"
     id="path950" />
  <path
     style="fill:#000080;fill-opacity:0;stroke-width:0.355284"
     d="M 24.287262,75.149535 C 20.990153,74.519308 19.510311,74.02621 16.698162,72.620761 8.8501257,68.698493 3.713187,61.599015 1.329156,51.380112 0.27018699,46.84095 0.18067241,33.051376 1.1800703,28.413684 3.5300102,17.50882 8.7551602,10.113155 16.875975,6.1977394 c 4.509687,-2.1743265 7.262124,-2.7855138 12.61257,-2.8006619 3.518726,-0.00996 5.06525,0.1543101 7.446636,0.7909839 11.578859,3.0956574 19.143172,12.4124216 21.13448,26.0307926 0.643678,4.40205 0.720824,12.95063 0.158293,17.540945 -1.418317,11.573697 -7.227209,20.748297 -15.75584,24.884876 -1.767298,0.857179 -4.252472,1.809385 -5.522611,2.11602 -3.268324,0.789024 -9.558113,0.982178 -12.662241,0.38884 z m 10.595683,-9.794279 c 6.563195,-2.027167 10.45316,-7.869299 11.66843,-17.524197 0.66929,-5.317293 0.284713,-17.03013 -0.678926,-20.677713 -2.114883,-8.005269 -6.568524,-12.816598 -12.954,-13.994381 -1.45824,-0.268968 -2.285281,-0.271624 -2.776159,-0.0089 -0.498476,0.266777 -0.838406,0.258623 -1.184256,-0.02841 -0.713322,-0.592005 -4.154601,0.1249 -6.784587,1.4134 -4.18483,2.05026 -7.537948,6.816465 -9.067096,12.888198 -0.957536,3.802051 -1.343409,15.374467 -0.67622,20.279939 1.315228,9.670144 5.76539,16.075098 12.414625,17.867924 2.589779,0.698281 7.414467,0.594535 10.038189,-0.215849 z"
     id="path952" />
  <path
     style="fill:#000080;fill-opacity:0;stroke-width:0.355284"
     d="M 71.41202,37.456573 V 0.32942805 h 5.506897 5.506897 V 37.456573 74.583717 H 76.918917 71.41202 Z"
     id="path954" />
  <path
     style="fill:#000080;fill-opacity:0;stroke-width:0.355284"
     d="M 24.287262,75.149535 C 20.990153,74.519308 19.510311,74.02621 16.698162,72.620761 8.8501257,68.698493 3.713187,61.599015 1.329156,51.380112 0.27018699,46.84095 0.18067241,33.051376 1.1800703,28.413684 3.5300102,17.50882 8.7551602,10.113155 16.875975,6.1977394 c 4.509687,-2.1743265 7.262124,-2.7855138 12.61257,-2.8006619 3.518726,-0.00996 5.06525,0.1543101 7.446636,0.7909839 11.578859,3.0956574 19.143172,12.4124216 21.13448,26.0307926 0.643678,4.40205 0.720824,12.95063 0.158293,17.540945 -1.418317,11.573697 -7.227209,20.748297 -15.75584,24.884876 -1.767298,0.857179 -4.252472,1.809385 -5.522611,2.11602 -3.268324,0.789024 -9.558113,0.982178 -12.662241,0.38884 z m 10.595683,-9.794279 c 6.563195,-2.027167 10.45316,-7.869299 11.66843,-17.524197 0.66929,-5.317293 0.284713,-17.03013 -0.678926,-20.677713 C 43.667192,18.805997 39.129587,14.13582 32.17374,13.054418 c -9.206061,-1.431234 -16.466042,4.03975 -19.067389,14.368824 -0.957536,3.802051 -1.343409,15.374467 -0.67622,20.279939 1.315228,9.670144 5.76539,16.075098 12.414625,17.867924 2.589779,0.698281 7.414467,0.594535 10.038189,-0.215849 z"
     id="path956" />
  <path
     style="fill:#000080;fill-opacity:0;stroke-width:0.355284"
     d="M 24.287262,75.149535 C 20.990153,74.519308 19.510311,74.02621 16.698162,72.620761 8.8501257,68.698493 3.713187,61.599015 1.329156,51.380112 0.27018699,46.84095 0.18067241,33.051376 1.1800703,28.413684 3.5300102,17.50882 8.7551602,10.113155 16.875975,6.1977394 c 4.509687,-2.1743265 7.262124,-2.7855138 12.61257,-2.8006619 3.518726,-0.00996 5.06525,0.1543101 7.446636,0.7909839 11.578859,3.0956574 19.143172,12.4124216 21.13448,26.0307926 0.643678,4.40205 0.720824,12.95063 0.158293,17.540945 -1.418317,11.573697 -7.227209,20.748297 -15.75584,24.884876 -1.767298,0.857179 -4.252472,1.809385 -5.522611,2.11602 -3.268324,0.789024 -9.558113,0.982178 -12.662241,0.38884 z m 10.595683,-9.794279 c 6.563195,-2.027167 10.45316,-7.869299 11.66843,-17.524197 0.66929,-5.317293 0.284713,-17.03013 -0.678926,-20.677713 C 43.667192,18.805997 39.129587,14.13582 32.17374,13.054418 c -9.206061,-1.431234 -16.466042,4.03975 -19.067389,14.368824 -0.957536,3.802051 -1.343409,15.374467 -0.67622,20.279939 1.315228,9.670144 5.76539,16.075098 12.414625,17.867924 2.589779,0.698281 7.414467,0.594535 10.038189,-0.215849 z"
     id="path958" />
  <path
     style="fill:#000080;fill-opacity:0;stroke-width:0.355284"
     d="M 24.287262,75.149535 C 20.990153,74.519308 19.510311,74.02621 16.698162,72.620761 8.8501257,68.698493 3.713187,61.599015 1.329156,51.380112 0.27018699,46.84095 0.18067241,33.051376 1.1800703,28.413684 3.5300102,17.50882 8.7551602,10.113155 16.875975,6.1977394 c 4.509687,-2.1743265 7.262124,-2.7855138 12.61257,-2.8006619 3.518726,-0.00996 5.06525,0.1543101 7.446636,0.7909839 11.578859,3.0956574 19.143172,12.4124216 21.13448,26.0307926 0.643678,4.40205 0.720824,12.95063 0.158293,17.540945 -1.418317,11.573697 -7.227209,20.748297 -15.75584,24.884876 -1.767298,0.857179 -4.252472,1.809385 -5.522611,2.11602 -3.268324,0.789024 -9.558113,0.982178 -12.662241,0.38884 z m 10.595683,-9.794279 c 6.563195,-2.027167 10.45316,-7.869299 11.66843,-17.524197 0.66929,-5.317293 0.284713,-17.03013 -0.678926,-20.677713 C 43.667192,18.805997 39.129587,14.13582 32.17374,13.054418 c -9.206061,-1.431234 -16.466042,4.03975 -19.067389,14.368824 -0.957536,3.802051 -1.343409,15.374467 -0.67622,20.279939 1.315228,9.670144 5.76539,16.075098 12.414625,17.867924 2.589779,0.698281 7.414467,0.594535 10.038189,-0.215849 z"
     id="path960" />
  <path
     style="fill:#0000ff;fill-opacity:0;stroke-width:0.355284"
     d="M 24.287262,75.149535 C 20.990153,74.519308 19.510311,74.02621 16.698162,72.620761 8.8501257,68.698493 3.713187,61.599015 1.329156,51.380112 0.27018699,46.84095 0.18067241,33.051376 1.1800703,28.413684 3.5300102,17.50882 8.7551602,10.113155 16.875975,6.1977394 c 4.509687,-2.1743265 7.262124,-2.7855138 12.61257,-2.8006619 3.518726,-0.00996 5.06525,0.1543101 7.446636,0.7909839 11.578859,3.0956574 19.143172,12.4124216 21.13448,26.0307926 0.643678,4.40205 0.720824,12.95063 0.158293,17.540945 -1.418317,11.573697 -7.227209,20.748297 -15.75584,24.884876 -1.767298,0.857179 -4.252472,1.809385 -5.522611,2.11602 -3.268324,0.789024 -9.558113,0.982178 -12.662241,0.38884 z m 10.595683,-9.794279 c 6.563195,-2.027167 10.45316,-7.869299 11.66843,-17.524197 0.66929,-5.317293 0.284713,-17.03013 -0.678926,-20.677713 C 43.667192,18.805997 39.129587,14.13582 32.17374,13.054418 c -9.206061,-1.431234 -16.466042,4.03975 -19.067389,14.368824 -0.957536,3.802051 -1.343409,15.374467 -0.67622,20.279939 1.315228,9.670144 5.76539,16.075098 12.414625,17.867924 2.589779,0.698281 7.414467,0.594535 10.038189,-0.215849 z"
     id="path962" />
  <path
     style="fill:#00cbff;fill-opacity:0.53441298;stroke-width:0.355284"
     d="M 24.287262,75.149535 C 20.990153,74.519308 19.510311,74.02621 16.698162,72.620761 8.8501257,68.698493 3.713187,61.599015 1.329156,51.380112 0.27018699,46.84095 0.18067241,33.051376 1.1800703,28.413684 3.5300102,17.50882 8.7551602,10.113155 16.875975,6.1977394 c 4.509687,-2.1743265 7.262124,-2.7855138 12.61257,-2.8006619 3.518726,-0.00996 5.06525,0.1543101 7.446636,0.7909839 11.578859,3.0956574 19.143172,12.4124216 21.13448,26.0307926 0.643678,4.40205 0.720824,12.95063 0.158293,17.540945 -1.418317,11.573697 -7.227209,20.748297 -15.75584,24.884876 -1.767298,0.857179 -4.252472,1.809385 -5.522611,2.11602 -3.268324,0.789024 -9.558113,0.982178 -12.662241,0.38884 z m 10.595683,-9.794279 c 6.563195,-2.027167 10.45316,-7.869299 11.66843,-17.524197 0.66929,-5.317293 0.284713,-17.03013 -0.678926,-20.677713 C 43.667192,18.805997 39.129587,14.13582 32.17374,13.054418 c -9.206061,-1.431234 -16.466042,4.03975 -19.067389,14.368824 -0.957536,3.802051 -1.343409,15.374467 -0.67622,20.279939 1.315228,9.670144 5.76539,16.075098 12.414625,17.867924 2.589779,0.698281 7.414467,0.594535 10.038189,-0.215849 z"
     id="path964" />
  <path
     style="fill:#00cbff;fill-opacity:0.534413;stroke-width:0.355284"
     d="m 82.95235,37.456573 c -1.6e-5,-20.713039 0.04279,-29.2387651 0.09513,-18.946058 0.05234,10.292706 0.05235,27.239739 2.9e-5,37.660071 -0.05232,10.420332 -0.09514,1.999025 -0.09516,-18.714013 z"
     id="path966" />
  <path
     style="fill:#00cbff;fill-opacity:0.534413;stroke-width:0.355284"
     d="M 71.41202,37.456573 V 0.32942805 h 5.506897 5.506897 V 37.456573 74.583717 H 76.918917 71.41202 Z"
     id="path968" />
  <path
     style="fill:#00cbff;fill-opacity:0.534413;stroke-width:0.355284"
     d="M 96.637161,48.470367 V 22.357016 h 5.684539 5.68454 v 26.113351 26.11335 h -5.68454 -5.684539 z"
     id="path970" />
  <path
     style="fill:#00cbff;fill-opacity:0.534413;stroke-width:0.355284"
     d="M 121.50702,48.470367 V 22.357016 h 5.10513 5.10512 l 0.22022,1.332314 c 0.12112,0.732773 0.22198,2.171672 0.22413,3.197553 0.002,1.025882 0.0965,1.865239 0.2096,1.865239 0.11313,0 0.90528,-0.699587 1.76033,-1.554639 3.67315,-3.673155 7.19232,-5.206563 12.54894,-5.467959 9.29037,-0.453359 14.76582,3.325745 16.99019,11.726459 0.5046,1.905745 0.60935,5.00901 0.7316,21.675953 l 0.14269,19.451781 h -5.70885 -5.70885 V 56.351092 c 0,-20.07277 -0.0628,-20.747233 -2.15148,-23.126164 -2.16325,-2.463801 -6.97536,-3.341723 -11.21682,-2.046396 -2.71961,0.830563 -4.58065,2.188236 -6.17399,4.504067 l -1.06417,1.546717 v 18.6772 18.677201 h -5.50689 -5.5069 z"
     id="path972" />
  <path
     style="fill:#00cbff;fill-opacity:0.534413;stroke-width:0.355284"
     d="m 189.76829,75.266711 c -3.92682,-0.771722 -7.17549,-3.609519 -8.61524,-7.525644 -0.80162,-2.180418 -0.81718,-2.506466 -0.94093,-19.714805 L 180.0863,30.528541 h -4.24214 -4.24214 v -4.085762 -4.085763 h 4.2634 4.26341 V 15.96191 9.5668037 h 5.68453 5.68454 v 6.3951063 6.395106 h 4.61869 4.61869 v 4.085763 4.085762 h -4.61869 -4.61869 v 16.200534 c 0,18.091969 -0.008,18.026682 2.37518,19.157621 0.94785,0.449782 1.98311,0.565029 4.236,0.471557 l 2.98159,-0.123702 -6e-5,4.15064 c -5e-5,4.70645 0.30905,4.28076 -3.55288,4.892942 -2.68324,0.425335 -5.56863,0.421093 -7.76944,-0.01144 z"
     id="path974" />
  <path
     style="fill:#00cbff;fill-opacity:0.534413;stroke-width:0.355284"
     d="m 228.62505,75.418772 c -9.07638,-1.451685 -16.05594,-7.444752 -18.82048,-16.16039 -1.20792,-3.808143 -1.73943,-8.333226 -1.49667,-12.742076 0.64036,-11.629515 6.34261,-20.191115 15.69846,-23.570323 3.74906,-1.354109 10.02286,-1.709889 14.11152,-0.800247 8.53443,1.898729 14.79083,8.064212 17.41162,17.158602 0.69455,2.410125 0.79912,3.603619 0.8031,9.166029 0.005,7.133379 -0.38993,9.348846 -2.47065,13.856063 -2.87635,6.230671 -8.12361,10.689431 -14.67104,12.466436 -2.05063,0.556548 -8.58086,0.943391 -10.56586,0.625906 z m 7.90929,-9.192016 c 1.23007,-0.365289 2.4562,-1.121432 3.77925,-2.330629 3.31015,-3.025287 4.72222,-6.922486 5.07486,-14.006136 0.37506,-7.534253 -1.31138,-13.05049 -5.02844,-16.447675 -2.4236,-2.21503 -4.3873,-2.913775 -8.18867,-2.913775 -2.51894,0 -3.18345,0.141707 -5.05863,1.078742 -5.229,2.612962 -7.52881,7.79864 -7.55743,17.040726 -0.0199,6.413902 0.79002,9.809325 3.16214,13.257087 2.21126,3.213956 5.35173,4.818414 9.4848,4.845764 1.38123,0.0091 3.33068,-0.226707 4.33212,-0.524104 z"
     id="path976" />
  <path
     style="fill:#00cbff;fill-opacity:0.534413;stroke-width:0.355284"
     d="m 272.02479,74.77605 c -5.01757,-1.78901 -5.60857,-8.639048 -0.95755,-11.098569 2.90012,-1.533618 6.34439,-0.956321 8.42372,1.411907 2.10712,2.399874 2.02519,5.893616 -0.19016,8.108963 -1.96389,1.963891 -4.5936,2.534107 -7.27601,1.577699 z"
     id="path978" />
  <path
     style="fill:#00cbff;fill-opacity:0.534413;stroke-width:0.355284"
     d="M 308.74152,39.410633 V 14.185492 l 5.06279,0.0027 c 6.43535,0.0034 9.06596,0.422284 12.16847,1.937583 4.84314,2.365446 8.1626,7.013486 9.65164,13.514574 0.99216,4.331765 0.882,16.278283 -0.18675,20.251169 -2.09541,7.789389 -6.61303,12.637849 -13.22844,14.197214 -1.51812,0.357846 -4.14004,0.538305 -7.87199,0.541808 l -5.59572,0.0053 z"
     id="path980" />
  <path
     style="fill:#00cbff;fill-opacity:0.534413;stroke-width:0.355284"
     d="M 361.67879,39.410633 V 4.2375485 h 22.73815 22.73816 v 4.6186879 4.6186876 h -16.87598 -16.87597 v 10.125585 10.125585 h 14.56663 14.56663 v 4.618688 4.618688 h -14.56663 -14.56663 v 11.191436 11.191436 h 17.05361 17.05362 v 4.618687 4.618688 h -22.9158 -22.91579 z"
     id="path982" />
  <path
     style="fill:#00cbff;fill-opacity:0.534413;stroke-width:0.355284"
     d="M 437.17703,74.148452 C 437.08812,73.899331 431.43295,58.107437 424.61,39.055349 l -12.40537,-34.6401586 6.24231,-0.097274 c 3.62003,-0.056411 6.32794,0.042763 6.44615,0.2360809 0.11211,0.1833452 4.20077,12.8013337 9.08593,28.0399737 4.88515,15.23864 8.96632,27.655446 9.06926,27.592902 0.10295,-0.06254 4.25976,-12.675428 9.23738,-28.02863 l 9.0502,-27.914914 6.3448,-0.00289 6.3448,-0.00289 -0.21507,0.7993883 C 473.69211,5.4766004 468.03876,21.264519 461.2474,40.1212 l -12.34793,34.284875 -5.78039,0.09766 c -4.43388,0.07491 -5.81805,-0.0079 -5.94205,-0.355283 z"
     id="path984" />
  <path
     style="fill:#000080;fill-opacity:0.534413;stroke-width:0.355284"
     d="M 296.30659,39.410633 V 4.2375485 h 11.52101 c 12.7043,0 15.54981,0.2548452 20.27688,1.8160079 12.09015,3.9928956 19.28896,14.1069216 20.51904,28.8284086 0.73738,8.824829 -0.43585,16.662064 -3.41699,22.825777 -4.33549,8.963907 -11.58301,14.365121 -21.90225,16.322649 -2.28073,0.432647 -5.54288,0.553326 -14.95729,0.553326 h -12.0404 z m 25.65176,25.545973 c 3.41699,-0.707341 6.71791,-2.556646 9.0903,-5.092743 3.90398,-4.173365 5.61297,-9.249427 5.989,-17.788603 0.68589,-15.575703 -3.53876,-24.530664 -13.01893,-27.596153 -1.91079,-0.617867 -3.48971,-0.776228 -9.14856,-0.917574 l -6.83921,-0.170829 v 25.977819 25.977819 h 6.02234 c 3.31228,0 6.86956,-0.175383 7.90506,-0.389736 z"
     id="path986" />
  <path
     style="fill:#000080;fill-opacity:0.534413;stroke-width:0.355284"
     d="M 296.30659,39.410633 V 4.2375485 l 5.06279,0.020856 c 11.86772,0.048888 21.64965,0.5960693 24.6034,1.3762648 12.30594,3.2504589 20.19473,12.7939667 22.19285,26.8479317 0.52105,3.664906 0.44003,11.617489 -0.15566,15.277198 -1.72473,10.596208 -7.39796,18.852305 -15.89477,23.131228 -4.74793,2.39102 -7.79199,3.025261 -16.09037,3.352488 -4.10352,0.161811 -10.21884,0.304553 -13.5896,0.317205 l -6.12864,0.023 z m 26.29099,25.550123 c 4.87793,-1.123439 9.31418,-4.783483 11.7249,-9.673405 2.28207,-4.628948 2.65716,-6.942229 2.63193,-16.232002 -0.0192,-7.065475 -0.11165,-8.323983 -0.79623,-10.836152 -1.71026,-6.276041 -5.00823,-10.671847 -9.67495,-12.895555 -2.82174,-1.344568 -5.46424,-1.75034 -12.85656,-1.974203 l -5.59572,-0.169456 v 26.083179 26.08318 l 6.48393,-0.0087 c 3.56616,-0.0048 7.20337,-0.17438 8.0827,-0.376899 z"
     id="path988" />
  <path
     style="fill:#000080;fill-opacity:0.534413;stroke-width:0.355284"
     d="m 98.751792,13.384896 c -2.608078,-1.757583 -3.437209,-5.5443009 -1.79557,-8.2005286 1.584299,-2.5634502 5.556178,-3.4565661 8.555768,-1.923849 2.10577,1.0759915 2.93168,2.306831 3.1268,4.659808 0.20055,2.4183646 -0.79666,4.4060586 -2.76569,5.5127146 -1.9185,1.078258 -5.48563,1.054141 -7.121308,-0.04814 z"
     id="path990" />
  <path
     style="fill:#000080;fill-opacity:0.534413;stroke-width:0.355284"
     d="M 25.047499,64.870009 C 19.416143,62.997881 15.808176,58.655991 13.781772,51.312636 13.066587,48.720927 12.998049,47.671709 13.004293,39.410633 c 0.0076,-10.03559 0.319411,-12.038367 2.627211,-16.873925 3.059629,-6.410877 9.473618,-9.866476 16.340467,-8.803587 6.606821,1.022641 11.018135,5.564404 13.214013,13.604768 0.757987,2.775423 0.822888,3.713395 0.823063,11.895102 1.58e-4,7.394908 -0.110214,9.357991 -0.659191,11.724361 -1.472196,6.345925 -4.5942,10.858244 -9.02021,13.03716 -2.055778,1.012058 -2.658156,1.134655 -6.071606,1.235737 -2.488143,0.07368 -4.277416,-0.05003 -5.210541,-0.36024 z"
     id="path992" />
  <path
     style="fill:#000080;fill-opacity:0.534413;stroke-width:0.355284"
     d="m 228.76087,65.566412 c -6.35995,-2.272729 -9.37202,-9.355387 -8.45726,-19.886612 0.65602,-7.552434 3.75264,-12.621364 8.59711,-14.072805 1.66111,-0.497678 5.32488,-0.521809 6.93143,-0.04565 4.14288,1.227883 7.23046,5.274992 8.4743,11.107864 0.72336,3.392121 0.46908,10.468334 -0.49728,13.838686 -1.27645,4.45184 -4.08756,7.843411 -7.45088,8.989409 -1.96776,0.670485 -5.81658,0.705494 -7.59742,0.06911 z"
     id="path994" />
  <path
     style="fill:#000080;fill-opacity:0.534413;stroke-width:0.355284"
     d="M 100.09781,13.67768 C 98.308284,13.039108 97.710639,12.49575 96.943943,10.810297 96.099319,8.9535319 96.115591,7.3774587 96.997223,5.6493109 98.86364,1.9908322 105.44589,1.8413134 107.68418,5.4065515 c 0.56749,0.903916 0.69005,1.6001942 0.59113,3.3583372 -0.10978,1.9513873 -0.26782,2.3655723 -1.31474,3.4457193 -0.83241,0.858828 -1.71336,1.339973 -2.9319,1.601303 -2.14575,0.460182 -2.27771,0.455675 -3.93086,-0.134231 z"
     id="path996" />
  <path
     style="fill:#000080;fill-opacity:0.534413;stroke-width:0.355284"
     d="m 227.73684,64.892782 c -3.24985,-1.572149 -5.65074,-4.927254 -6.79412,-9.494384 -0.68505,-2.736391 -0.59429,-10.511816 0.15867,-13.592774 1.1504,-4.707156 3.28079,-7.784214 6.46951,-9.34431 2.58156,-1.263039 7.12359,-1.345945 9.54408,-0.174207 3.08146,1.491708 5.74981,5.303767 6.78455,9.692526 0.61176,2.594711 0.69583,9.005409 0.162,12.352914 -0.74902,4.696987 -3.54859,8.964657 -6.90967,10.533149 -2.45841,1.147245 -7.07206,1.160518 -9.41502,0.02709 z"
     id="path998" />
  <path
     style="fill:#000080;fill-opacity:0.534413;stroke-width:0.355284"
     d="m 24.475361,64.486864 c -4.761182,-1.819205 -8.267228,-6.118361 -10.319433,-12.653823 -0.78758,-2.508132 -0.832751,-3.17287 -0.832064,-12.244766 8.1e-4,-10.693754 0.145847,-11.727249 2.293531,-16.34305 1.802673,-3.874305 4.000458,-6.221086 7.397886,-7.899418 2.638498,-1.30342 2.809942,-1.337957 6.64167,-1.337957 3.724014,0 4.058689,0.06176 6.291027,1.160962 4.530939,2.231028 7.688803,6.722562 9.204103,13.091298 0.69081,2.90344 0.738342,3.897588 0.59258,12.394016 -0.143776,8.380669 -0.233251,9.468026 -0.964762,11.724361 -1.816576,5.6032 -4.425596,9.148274 -8.252264,11.212977 -2.154957,1.162719 -2.409669,1.213528 -6.506164,1.297801 -2.956666,0.06083 -4.656555,-0.06251 -5.54611,-0.402401 z"
     id="path1000" />
  <path
     style="fill:#000080;fill-opacity:0.534413;stroke-width:0.355284"
     d="m 271.2696,74.128358 c -0.77585,-0.439425 -1.78909,-1.356091 -2.25165,-2.037037 -0.70656,-1.040142 -0.81997,-1.580268 -0.70934,-3.378393 0.21493,-3.493655 2.51575,-5.599798 6.11739,-5.599798 3.71654,0 6.24811,2.457547 6.24811,6.065435 0,4.480037 -5.30455,7.271935 -9.40451,4.949793 z"
     id="path1002" />
</svg>
